<?xml version="1.0" ?><svg height="48mm" id="svg6744" version="1.1" viewBox="0 0 48 48" width="48mm" xmlns="http://www.w3.org/2000/svg" xmlns:cc="http://creativecommons.org/ns#" xmlns:dc="http://purl.org/dc/elements/1.1/" xmlns:rdf="http://www.w3.org/1999/02/22-rdf-syntax-ns#" xmlns:svg="http://www.w3.org/2000/svg" xmlns:xlink="http://www.w3.org/1999/xlink"><defs id="defs6738"><linearGradient gradientUnits="userSpaceOnUse" id="linearGradient6610" x1="-216.77136" x2="-192.63074" xlink:href="#linearGradient6307" y1="86.84304" y2="93.311501"/><linearGradient id="linearGradient6307"><stop id="stop6303" offset="0" style="stop-color:#fffcc9;stop-opacity:1"/><stop id="stop6305" offset="1" style="stop-color:#ffe68f;stop-opacity:1"/></linearGradient><linearGradient gradientTransform="matrix(1,0,0,1.0771934,-50.930071,5.3691345)" gradientUnits="userSpaceOnUse" id="linearGradient6325-0-0-8-7" x1="-252.62323" x2="-248.03944" xlink:href="#linearGradient6717" y1="141.25665" y2="141.28735"/><linearGradient id="linearGradient6717"><stop id="stop6713" offset="0" style="stop-color:#ac8462;stop-opacity:1"/><stop id="stop6715" offset="1" style="stop-color:#ffffff;stop-opacity:1"/></linearGradient></defs><g id="layer1" transform="translate(0,-249)"><g id="g6711" transform="matrix(0.32412187,-0.18713186,0.18713186,0.32412187,72.170153,177.88704)"><g id="g6705" transform="translate(69.320399,19.616468)"><path d="m -182.27211,121.60704 -19.79943,-9.5853 -15.86835,15.23453 2.99781,-21.7924 -19.39249,-10.38397 21.65217,-3.883138 3.88314,-21.65217 10.38397,19.392481 21.7924,-2.997804 -15.23452,15.868351 z" id="path6299-4-3" style="fill:url(#linearGradient6610);fill-opacity:1;fill-rule:nonzero;stroke:none;stroke-width:4;stroke-linecap:round;stroke-linejoin:round;stroke-miterlimit:4;stroke-dasharray:none;stroke-opacity:1" transform="rotate(80.956825,-266.93939,54.216421)"/><path d="m -302.13776,135.84547 -2.60604,1.81642 v 46.79301 h 5.179 v -46.82195 z" id="rect6301-4-6-2-3" style="fill:url(#linearGradient6325-0-0-8-7);fill-opacity:1;fill-rule:nonzero;stroke:none;stroke-width:4.15151739;stroke-linecap:round;stroke-linejoin:round;stroke-miterlimit:4;stroke-dasharray:none;stroke-opacity:1"/></g><path d="m -232.77804,110.41806 a 2.0002,2.0002 0 0 0 -1.96163,1.34411 l -6.7505,19.4691 -20.60184,0.43459 a 2.0002,2.0002 0 0 0 -1.16428,3.59513 l 16.43053,12.43749 -5.95209,19.72541 a 2.0002,2.0002 0 0 0 3.05718,2.21898 l 12.22096,-8.51782 v 42.909 a 2.0759663,2.0759663 0 0 0 2.07636,2.07585 h 5.17953 a 2.0759663,2.0759663 0 0 0 2.07636,-2.07585 v -42.94414 l 12.27522,8.52867 a 2.0002,2.0002 0 0 0 3.05562,-2.22312 l -5.98206,-19.71869 16.4114,-12.46125 a 2.0002,2.0002 0 0 0 0.75758,-1.94975 2.0002,2.0002 0 0 0 -1.92857,-1.6428 l -20.60288,-0.40514 -6.77943,-19.45773 a 2.0002,2.0002 0 0 0 -1.81746,-1.34204 z m -0.0672,8.0915 5.34438,15.3386 a 2.0002,2.0002 0 0 0 1.8495,1.34307 l 16.24035,0.31884 -12.93512,9.82318 a 2.0002,2.0002 0 0 0 -0.70435,2.17299 l 4.71444,15.54375 -10.31204,-7.16545 a 2.0759663,2.0759663 0 0 0 -0.41186,-0.37775 l -2.57245,-1.78749 a 2.0759663,2.0759663 0 0 0 -1.16995,-0.37104 2.0759663,2.0759663 0 0 0 -1.20097,0.3731 l -2.60759,1.81643 a 2.0759663,2.0759663 0 0 0 -0.40514,0.37466 l -10.27017,7.15873 4.69222,-15.54995 a 2.0002,2.0002 0 0 0 -0.70745,-2.17352 l -12.95425,-9.80456 16.2419,-0.3421 a 2.0002,2.0002 0 0 0 1.84692,-1.3441 z m 0.0315,39.4441 0.49402,0.34417 v 43.65987 h -1.02733 v -43.63248 z" id="path6299-4-3-6" style="color:#000000;font-style:normal;font-variant:normal;font-weight:normal;font-stretch:normal;font-size:medium;line-height:normal;font-family:sans-serif;font-variant-ligatures:normal;font-variant-position:normal;font-variant-caps:normal;font-variant-numeric:normal;font-variant-alternates:normal;font-feature-settings:normal;text-indent:0;text-align:start;text-decoration:none;text-decoration-line:none;text-decoration-style:solid;text-decoration-color:#000000;letter-spacing:normal;word-spacing:normal;text-transform:none;writing-mode:lr-tb;direction:ltr;text-orientation:mixed;dominant-baseline:auto;baseline-shift:baseline;text-anchor:start;white-space:normal;shape-padding:0;clip-rule:nonzero;display:inline;overflow:visible;visibility:visible;opacity:1;isolation:auto;mix-blend-mode:normal;color-interpolation:sRGB;color-interpolation-filters:linearRGB;solid-color:#000000;solid-opacity:1;vector-effect:none;fill:#294a63;fill-opacity:1;fill-rule:nonzero;stroke:none;stroke-width:4;stroke-linecap:round;stroke-linejoin:round;stroke-miterlimit:4;stroke-dasharray:none;stroke-dashoffset:0;stroke-opacity:1;color-rendering:auto;image-rendering:auto;shape-rendering:auto;text-rendering:auto;enable-background:accumulate"/></g></g></svg>